<mxfile host="65bd71144e">
    <diagram id="Qd1pVzBGgaBMhq133N0l" name="Page-1">
        <mxGraphModel dx="377" dy="541" grid="1" gridSize="10" guides="1" tooltips="1" connect="1" arrows="1" fold="1" page="1" pageScale="1" pageWidth="827" pageHeight="1169" math="0" shadow="0">
            <root>
                <mxCell id="0"/>
                <mxCell id="1" parent="0"/>
                <mxCell id="3" value="" style="group" vertex="1" connectable="0" parent="1">
                    <mxGeometry x="1030" y="920" width="320" height="330" as="geometry"/>
                </mxCell>
                <mxCell id="4" value="连线如何被draw出来" style="text;html=1;strokeColor=none;fillColor=none;align=center;verticalAlign=middle;whiteSpace=wrap;rounded=0;shadow=0;glass=0;sketch=0;" vertex="1" parent="3">
                    <mxGeometry width="200" height="20" as="geometry"/>
                </mxCell>
                <mxCell id="5" value="右键菜单启动连线行为" style="rounded=1;whiteSpace=wrap;html=1;shadow=0;glass=0;sketch=0;strokeWidth=1;fillColor=none;" vertex="1" parent="3">
                    <mxGeometry x="40" y="25" width="120" height="60" as="geometry"/>
                </mxCell>
                <mxCell id="6" value="连线信息被缓存到LG" style="rounded=1;whiteSpace=wrap;html=1;shadow=0;glass=0;sketch=0;strokeWidth=1;fillColor=none;" vertex="1" parent="3">
                    <mxGeometry x="40" y="110" width="120" height="60" as="geometry"/>
                </mxCell>
                <mxCell id="7" value="" style="edgeStyle=orthogonalEdgeStyle;rounded=0;orthogonalLoop=1;jettySize=auto;html=1;dashed=1;startArrow=none;startFill=0;endArrow=classic;endFill=1;strokeWidth=1;" edge="1" parent="3" source="5" target="6">
                    <mxGeometry relative="1" as="geometry"/>
                </mxCell>
                <mxCell id="8" value="根据连线信息OnGUI绘制线" style="rounded=1;whiteSpace=wrap;html=1;shadow=0;glass=0;sketch=0;strokeWidth=1;fillColor=none;" vertex="1" parent="3">
                    <mxGeometry x="40" y="189" width="120" height="60" as="geometry"/>
                </mxCell>
                <mxCell id="9" value="" style="edgeStyle=orthogonalEdgeStyle;rounded=0;orthogonalLoop=1;jettySize=auto;html=1;dashed=1;startArrow=none;startFill=0;endArrow=classic;endFill=1;strokeWidth=1;" edge="1" parent="3" source="6" target="8">
                    <mxGeometry relative="1" as="geometry"/>
                </mxCell>
                <mxCell id="10" value="在鼠标点击事件中处理连线被连至Node的事件" style="rounded=1;whiteSpace=wrap;html=1;shadow=0;glass=0;sketch=0;strokeWidth=1;fillColor=none;" vertex="1" parent="3">
                    <mxGeometry x="40" y="270" width="120" height="60" as="geometry"/>
                </mxCell>
                <mxCell id="11" value="" style="edgeStyle=orthogonalEdgeStyle;rounded=0;orthogonalLoop=1;jettySize=auto;html=1;dashed=1;startArrow=none;startFill=0;endArrow=classic;endFill=1;strokeWidth=1;" edge="1" parent="3" source="8" target="10">
                    <mxGeometry relative="1" as="geometry"/>
                </mxCell>
                <mxCell id="12" value="check连线合理-&amp;gt;记录连线到NodeInfo-&amp;gt;清空连线信息缓存" style="rounded=1;whiteSpace=wrap;html=1;shadow=0;glass=0;sketch=0;strokeWidth=1;fillColor=none;" vertex="1" parent="3">
                    <mxGeometry x="200" y="270" width="120" height="60" as="geometry"/>
                </mxCell>
                <mxCell id="13" value="" style="edgeStyle=orthogonalEdgeStyle;rounded=0;orthogonalLoop=1;jettySize=auto;html=1;dashed=1;startArrow=none;startFill=0;endArrow=classic;endFill=1;strokeWidth=1;" edge="1" parent="3" source="10" target="12">
                    <mxGeometry relative="1" as="geometry"/>
                </mxCell>
                <mxCell id="14" value="同一时间只有一个连线嘛" style="ellipse;shape=cloud;whiteSpace=wrap;html=1;rounded=1;shadow=0;strokeWidth=1;fillColor=none;glass=0;sketch=0;" vertex="1" parent="3">
                    <mxGeometry x="200" y="50" width="120" height="80" as="geometry"/>
                </mxCell>
                <mxCell id="15" value="" style="edgeStyle=orthogonalEdgeStyle;rounded=0;orthogonalLoop=1;jettySize=auto;html=1;dashed=1;startArrow=none;startFill=0;endArrow=classic;endFill=1;strokeWidth=1;" edge="1" parent="3" source="6" target="14">
                    <mxGeometry relative="1" as="geometry"/>
                </mxCell>
            </root>
        </mxGraphModel>
    </diagram>
</mxfile>